<svg width="30" height="32" viewBox="0 0 30 32" fill="none" xmlns="http://www.w3.org/2000/svg">
<path d="M28.5034 21.7697C28.8964 27.8326 25.0498 30.0237 22.499 31.1976C19.9469 32.3715 17.1603 32.0973 15.3727 31.3935C13.585 30.6884 8.96135 26.3074 8.96135 26.3074L1.37098 19.3802C0.546907 18.6283 0.489856 17.3521 1.2442 16.5307C1.64356 16.096 2.18999 15.8762 2.73768 15.8762C3.22579 15.8762 3.71516 16.0518 4.10311 16.4056L9.58385 21.4071C9.68781 21.5018 9.85135 21.4841 9.93249 21.3691C9.99715 21.2782 9.98701 21.1543 9.90967 21.0735L0.582406 11.4371C-0.213778 10.6144 -0.190957 9.30406 0.634386 8.51051C1.03755 8.12257 1.55608 7.9305 2.07588 7.9305C2.59569 7.9305 3.16366 8.14279 3.57063 8.56358L11.483 16.7367C11.639 16.8984 11.9103 16.8391 11.9863 16.628C12.0573 16.4284 12.0142 16.2047 11.8735 16.0455L2.42453 5.38304C1.66511 4.5263 1.74625 3.21845 2.60583 2.4628C3.00138 2.11531 3.49203 1.94345 3.98013 1.94345C4.55445 1.94345 5.12623 2.18101 5.537 2.6435L14.4142 12.6615C14.4991 12.7563 14.6323 12.7917 14.7527 12.75C14.9555 12.6792 15.0278 12.4315 14.896 12.2635L7.904 3.34229C7.19783 2.44258 7.35757 1.14105 8.26152 0.438477C8.64186 0.142789 9.09194 0 9.53947 0C10.1556 0 10.7667 0.272943 11.1762 0.794819L20.0826 12.1573C20.3387 12.4833 20.681 12.7361 21.0778 12.8599C21.893 13.1126 23.1393 12.9446 23.5982 9.91818C24.3056 5.26299 27.8378 4.44164 29.3287 5.69389C30.8209 6.94488 29.5252 8.27547 28.3474 10.8571C27.1709 13.4386 28.1129 15.7081 28.5046 21.771L28.5034 21.7697Z" fill="url(#paint0_radial_541_1750)"/>
<defs>
<radialGradient id="paint0_radial_541_1750" cx="0" cy="0" r="1" gradientTransform="matrix(-9.27549 47.7548 -53.8086 8.85341 25.0372 2.86079)" gradientUnits="userSpaceOnUse">
<stop stop-color="#DCDCDC"/>
<stop offset="0.546894" stop-color="#DCDCDC" stop-opacity="0.9"/>
<stop offset="1" stop-color="#DCDCDC" stop-opacity="0.7"/>
</radialGradient>
</defs>
</svg>
